<?xml version="1.0" encoding="UTF-8" standalone="no"?>
<!-- Created with Inkscape (http://www.inkscape.org/) -->

<svg
   xmlns:dc="http://purl.org/dc/elements/1.1/"
   xmlns:cc="http://creativecommons.org/ns#"
   xmlns:rdf="http://www.w3.org/1999/02/22-rdf-syntax-ns#"
   xmlns:svg="http://www.w3.org/2000/svg"
   xmlns="http://www.w3.org/2000/svg"
   xmlns:sodipodi="http://sodipodi.sourceforge.net/DTD/sodipodi-0.dtd"
   xmlns:inkscape="http://www.inkscape.org/namespaces/inkscape"
   width="785"
   height="535"
   viewBox="0 0 785.00002 534.99999"
   id="svg11451"
   version="1.1"
   inkscape:version="0.91 r13725"
   sodipodi:docname="Ariane6_2017logo_plain.svg">
  <title
     id="title12050">Ariane 6 Logotype</title>
  <defs
     id="defs11453" />
  <sodipodi:namedview
     id="base"
     pagecolor="#ffffff"
     bordercolor="#666666"
     borderopacity="1.0"
     inkscape:pageopacity="0.0"
     inkscape:pageshadow="2"
     inkscape:zoom="0.7"
     inkscape:cx="449.93656"
     inkscape:cy="191.11464"
     inkscape:document-units="px"
     inkscape:current-layer="layer8"
     showgrid="false"
     inkscape:object-nodes="true"
     showguides="false"
     fit-margin-left="20"
     fit-margin-top="20"
     fit-margin-right="20"
     fit-margin-bottom="20"
     units="px"
     inkscape:window-width="1920"
     inkscape:window-height="1027"
     inkscape:window-x="-8"
     inkscape:window-y="-8"
     inkscape:window-maximized="1" />
  <metadata
     id="metadata11456">
    <rdf:RDF>
      <cc:Work
         rdf:about="">
        <dc:format>image/svg+xml</dc:format>
        <dc:type
           rdf:resource="http://purl.org/dc/dcmitype/StillImage" />
        <dc:title>Ariane 6 Logotype</dc:title>
      </cc:Work>
    </rdf:RDF>
  </metadata>
  <g
     inkscape:groupmode="layer"
     id="layer8"
     inkscape:label="Layer 2"
     transform="translate(129.82961,-10.42741)">
    <path
       style="fill:#1a2d67;fill-opacity:1;fill-rule:evenodd;stroke:none;stroke-width:1px;stroke-linecap:butt;stroke-linejoin:miter;stroke-opacity:1"
       d="M 84.942171,30.075542 201.06673,65.595868 147.10299,108.63035 288.50178,61.497419 Z"
       id="path12015"
       inkscape:connector-curvature="0" />
    <path
       style="color:#000000;clip-rule:nonzero;display:inline;overflow:visible;visibility:visible;opacity:1;isolation:auto;mix-blend-mode:normal;color-interpolation:sRGB;color-interpolation-filters:linearRGB;solid-color:#000000;solid-opacity:1;fill:#1a2d67;fill-opacity:1;fill-rule:evenodd;stroke:none;stroke-width:0.11744642;stroke-linecap:round;stroke-linejoin:round;stroke-miterlimit:4;stroke-dasharray:none;stroke-dashoffset:0;stroke-opacity:1;color-rendering:auto;image-rendering:auto;shape-rendering:auto;text-rendering:auto;enable-background:accumulate"
       d="m 450.54273,438.06575 c -32.95436,3.38434 -67.26094,5.17173 -102.49541,5.17173 -253.255691,0 -457.87672,-91.66332 -457.87693,-205.57875 C -109.82983,158.59431 -5.9157541,89.911689 136.00021,73.851596 17.081601,102.32603 -79.386243,159.99371 -78.737732,241.02513 -77.902457,345.2865 126.74021,446.15572 450.54273,438.06575 Z"
       id="path12019"
       inkscape:connector-curvature="0"
       sodipodi:nodetypes="csscsc" />
    <path
       style="fill:#45769f;fill-opacity:1;fill-rule:evenodd;stroke:none;stroke-width:1px;stroke-linecap:butt;stroke-linejoin:miter;stroke-opacity:1"
       d="m 385.5989,161.62855 -46.3695,-37.67514 38.64111,3.86408 14.4906,-62.792036 25.11668,63.758006 50.2336,9.66035 -39.6073,27.04884 17.38851,50.23358 -35.74299,-37.67514 -28.01479,20.28663 z"
       id="path12022"
       inkscape:connector-curvature="0" />
    <path
       style="fill:#45769f;fill-opacity:1;fill-rule:evenodd;stroke:none;stroke-width:0.01;stroke-linecap:butt;stroke-linejoin:miter;stroke-miterlimit:4;stroke-dasharray:none;stroke-opacity:1"
       d="m 428.10409,165.49265 c 59.03529,17.16951 187.42855,62.00654 178.2326,154.56486 C 591.65241,467.8554 298.12511,534.1231 77.435359,517.61054 180.36549,535.39224 337.06376,521.41189 440.17956,490.07894 543.29537,458.74579 633.86008,396.91495 635.80066,325.37054 638.15998,238.3804 548.75035,182.13416 428.10409,165.49265 Z"
       id="path12024"
       inkscape:connector-curvature="0"
       sodipodi:nodetypes="csczsc" />
    <g
       style="font-style:normal;font-weight:normal;font-size:115.47750092px;line-height:125%;font-family:sans-serif;letter-spacing:0px;word-spacing:0px;fill:#1a2d67;fill-opacity:1;stroke:none;stroke-width:1px;stroke-linecap:butt;stroke-linejoin:miter;stroke-opacity:1"
       id="text12026"
       transform="matrix(1.8777827,0,0,1.8777827,-230.86417,-243.80543)">
      <path
         d="m 167.51584,305.50558 0,-26.87476 c 0,-10.41397 -3.27536,-15.95689 -15.62095,-15.95689 l -15.03307,0 0,10.49796 13.18543,0 c 4.28316,0 6.1308,1.59568 6.1308,5.45893 l 0,1.67967 -7.55852,0 c -9.49015,0 -15.11706,4.03122 -15.11706,12.59755 0,9.15422 5.123,12.59754 13.3534,12.59754 l 20.65997,0 z m -11.33779,-9.2382 -6.55072,0 c -3.27536,0 -4.78707,-1.17577 -4.78707,-3.77926 0,-2.77146 1.59569,-4.03121 5.62691,-4.03121 l 5.71088,0 0,7.81047 z"
         style="font-style:normal;font-variant:normal;font-weight:bold;font-stretch:normal;font-size:83.98363495px;font-family:NotesStyle-BoldTf;-inkscape-font-specification:'NotesStyle-BoldTf Bold';fill:#1a2d67;fill-opacity:1"
         id="path12038"
         inkscape:connector-curvature="0" />
      <path
         d="m 199.08188,273.5918 0,-10.91787 -7.55853,0 c -9.49015,0 -13.85729,5.96284 -13.85729,15.11706 l 0,27.71459 11.33779,0 0,-26.03492 c 0,-3.94723 1.5117,-5.87886 5.54292,-5.87886 l 4.53511,0 z"
         style="font-style:normal;font-variant:normal;font-weight:bold;font-stretch:normal;font-size:83.98363495px;font-family:NotesStyle-BoldTf;-inkscape-font-specification:'NotesStyle-BoldTf Bold';fill:#1a2d67;fill-opacity:1"
         id="path12040"
         inkscape:connector-curvature="0" />
      <path
         d="m 217.2171,257.21499 0,-11.33779 -11.3378,0 0,11.33779 11.3378,0 z m 0,48.29059 0,-42.83165 -11.3378,0 0,42.83165 11.3378,0 z"
         style="font-style:normal;font-variant:normal;font-weight:bold;font-stretch:normal;font-size:83.98363495px;font-family:NotesStyle-BoldTf;-inkscape-font-specification:'NotesStyle-BoldTf Bold';fill:#1a2d67;fill-opacity:1"
         id="path12042"
         inkscape:connector-curvature="0" />
      <path
         d="m 259.70101,305.50558 0,-26.87476 c 0,-10.41397 -3.27536,-15.95689 -15.62096,-15.95689 l -15.03307,0 0,10.49796 13.18543,0 c 4.28317,0 6.13081,1.59568 6.13081,5.45893 l 0,1.67967 -7.55853,0 c -9.49015,0 -15.11705,4.03122 -15.11705,12.59755 0,9.15422 5.123,12.59754 13.3534,12.59754 l 20.65997,0 z m -11.33779,-9.2382 -6.55072,0 c -3.27537,0 -4.78707,-1.17577 -4.78707,-3.77926 0,-2.77146 1.59569,-4.03121 5.6269,-4.03121 l 5.71089,0 0,7.81047 z"
         style="font-style:normal;font-variant:normal;font-weight:bold;font-stretch:normal;font-size:83.98363495px;font-family:NotesStyle-BoldTf;-inkscape-font-specification:'NotesStyle-BoldTf Bold';fill:#1a2d67;fill-opacity:1"
         id="path12044"
         inkscape:connector-curvature="0" />
      <path
         d="m 303.86459,305.50558 0,-27.71459 c 0,-9.15422 -4.36715,-15.11706 -13.8573,-15.11706 l -20.15608,0 0,42.83165 11.33779,0 0,-32.75361 5.79487,0 c 4.03122,0 5.54292,2.35154 5.54292,6.29877 l 0,26.45484 11.3378,0 z"
         style="font-style:normal;font-variant:normal;font-weight:bold;font-stretch:normal;font-size:83.98363495px;font-family:NotesStyle-BoldTf;-inkscape-font-specification:'NotesStyle-BoldTf Bold';fill:#1a2d67;fill-opacity:1"
         id="path12046"
         inkscape:connector-curvature="0" />
      <path
         d="m 347.14897,288.70886 0,-8.81828 c 0,-10.24601 -5.54292,-17.21665 -15.95689,-17.21665 l -1.67967,0 c -10.83389,0 -16.37681,7.05463 -16.37681,17.21665 l 0,8.56633 c 0,11.33779 6.63471,17.04867 17.38461,17.04867 l 14.52917,0 0,-10.07803 -13.68933,0 c -4.78707,0 -6.71869,-2.51951 -6.88666,-6.71869 l 22.67558,0 z m -11.33779,-8.14641 -11.33779,0 0,-1.51171 c 0,-3.94723 1.34374,-7.13861 5.123,-7.13861 l 1.09179,0 c 3.77926,0 5.123,3.19138 5.123,7.13861 l 0,1.51171 z"
         style="font-style:normal;font-variant:normal;font-weight:bold;font-stretch:normal;font-size:83.98363495px;font-family:NotesStyle-BoldTf;-inkscape-font-specification:'NotesStyle-BoldTf Bold';fill:#1a2d67;fill-opacity:1"
         id="path12048"
         inkscape:connector-curvature="0" />
    </g>
    <g
       style="font-style:normal;font-variant:normal;font-weight:bold;font-stretch:normal;font-size:64.69283295px;line-height:125%;font-family:NotesStyle-BoldTf;-inkscape-font-specification:'NotesStyle-BoldTf Bold';letter-spacing:0px;word-spacing:0px;fill:#1a2d67;fill-opacity:1;stroke:none;stroke-width:1px;stroke-linecap:butt;stroke-linejoin:miter;stroke-opacity:1"
       id="text12030"
       transform="matrix(1.8777827,0,0,1.8777827,-230.86417,-243.80543)">
      <path
         d="m 396.10524,291.92009 0,-2.97587 c 0,-7.31029 -3.10526,-12.16225 -11.38594,-12.16225 l -7.69845,0 0,-1.68202 c 0,-4.91665 2.52302,-7.43967 7.76314,-7.43967 l 9.38046,0 0,-8.08661 -9.70392,0 c -9.76862,0 -16.17321,5.4342 -16.17321,16.82014 l 0,15.52628 c 0,8.73353 4.85196,13.58549 13.5855,13.58549 l 0.64692,0 c 9.057,0 13.5855,-5.11073 13.5855,-13.58549 z m -8.73353,-0.19408 c 0,3.49341 -1.22917,5.69297 -4.85197,5.69297 l -0.64692,0 c -3.36403,0 -4.85197,-1.87609 -4.85197,-5.69297 l 0,-6.85744 5.82236,0 c 2.78179,0 4.5285,1.09978 4.5285,4.5285 l 0,2.32894 z"
         id="path12035"
         inkscape:connector-curvature="0" />
    </g>
  </g>
</svg>
