<?xml version="1.0" encoding="UTF-8" standalone="no"?>
<!-- Created with Inkscape (http://www.inkscape.org/) -->

<svg
   xmlns:dc="http://purl.org/dc/elements/1.1/"
   xmlns:cc="http://creativecommons.org/ns#"
   xmlns:rdf="http://www.w3.org/1999/02/22-rdf-syntax-ns#"
   xmlns:svg="http://www.w3.org/2000/svg"
   xmlns="http://www.w3.org/2000/svg"
   xmlns:sodipodi="http://sodipodi.sourceforge.net/DTD/sodipodi-0.dtd"
   xmlns:inkscape="http://www.inkscape.org/namespaces/inkscape"
   width="87.374992mm"
   height="49.508774mm"
   viewBox="0 0 87.374992 49.508774"
   version="1.1"
   id="svg8"
   inkscape:version="0.92.3 (2405546, 2018-03-11)"
   sodipodi:docname="Arianespace.svg">
  <defs
     id="defs2" />
  <sodipodi:namedview
     id="base"
     pagecolor="#ffffff"
     bordercolor="#666666"
     borderopacity="1.0"
     inkscape:pageopacity="0.0"
     inkscape:pageshadow="2"
     inkscape:zoom="1.357645"
     inkscape:cx="124.95545"
     inkscape:cy="19.052347"
     inkscape:document-units="mm"
     inkscape:current-layer="layer1"
     showgrid="false"
     fit-margin-top="4"
     fit-margin-right="4"
     fit-margin-bottom="4"
     fit-margin-left="4"
     inkscape:window-width="807"
     inkscape:window-height="689"
     inkscape:window-x="552"
     inkscape:window-y="49"
     inkscape:window-maximized="0" />
  <metadata
     id="metadata5">
    <rdf:RDF>
      <cc:Work
         rdf:about="">
        <dc:format>image/svg+xml</dc:format>
        <dc:type
           rdf:resource="http://purl.org/dc/dcmitype/StillImage" />
        <dc:title></dc:title>
      </cc:Work>
    </rdf:RDF>
  </metadata>
  <g
     inkscape:label="Layer 1"
     inkscape:groupmode="layer"
     id="layer1"
     transform="translate(124.42661,-174.52374)">
    <g
       id="g21"
       transform="translate(-13.607142,55.940476)">
      <path
         style="fill:#007ac3;stroke-width:0.04579754"
         d="m -69.177068,164.02911 c -5.07875,-0.4612 -9.54036,-2.61925 -11.502432,-5.56367 -1.039403,-1.5598 -1.303421,-3.3145 -0.76056,-5.05485 1.24268,-3.98393 7.992284,-9.25798 18.587128,-14.52376 1.032736,-0.51328 2.207442,-1.0852 2.61046,-1.27092 0.590189,-0.27198 0.735614,-0.3572 0.747421,-0.43801 0.0087,-0.0598 -0.0148,-0.11162 -0.05836,-0.12834 -0.149388,-0.0573 -5.049458,1.3264 -8.314355,2.34787 -7.960575,2.49059 -16.741044,5.8285 -22.601086,8.59182 -6.784415,3.19922 -11.005398,6.23737 -11.745598,8.45419 -0.13204,0.39544 -0.13253,0.90555 -0.001,1.25657 0.11485,0.30697 0.48785,0.70401 0.8843,0.94132 2.386203,1.42829 8.125204,1.72076 14.984269,0.76362 0.467424,-0.0652 0.830438,-0.0968 0.838402,-0.0729 0.0077,0.0232 0.09496,0.20939 0.193838,0.41387 0.124895,0.25826 0.162554,0.37799 0.123347,0.39212 -0.03105,0.0112 -0.571668,0.12224 -1.201384,0.24678 -2.795422,0.55285 -5.253189,0.89812 -7.922974,1.11302 -0.458282,0.0369 -1.513305,0.0584 -2.816545,0.0576 -2.19249,-0.002 -2.68929,-0.0325 -4.098883,-0.25548 -2.99139,-0.47326 -4.8479,-1.52269 -5.39688,-3.05068 -0.35067,-0.97604 -0.22122,-2.05363 0.4004,-3.33306 1.67419,-3.44585 6.859963,-7.7428 14.934544,-12.37483 0.802096,-0.46013 2.219742,-1.24345 2.892884,-1.59848 l 0.511407,-0.26972 0.0522,-0.36638 c 0.08041,-0.5644 0.309303,-1.68288 0.463934,-2.26698 1.941303,-7.33305 7.73334,-13.04044 15.081871,-14.86147 0.94675,-0.23461 1.861794,-0.39762 2.873315,-0.51185 0.982068,-0.11091 3.307443,-0.11101 4.288514,-1.9e-4 3.44092,0.38866 6.521807,1.49553 9.328966,3.35162 1.249152,0.82594 2.247762,1.65771 3.389243,2.82301 1.797132,1.83463 3.171077,3.86929 4.201554,6.22205 0.818571,1.86893 1.417103,4.16508 1.614605,6.19411 0.01655,0.17003 0.03688,0.30914 0.04516,0.30914 0.103192,0 3.00567,-1.35338 4.422325,-2.06206 4.052088,-2.02704 6.903467,-3.87567 8.584713,-5.5657 1.404734,-1.41208 1.866359,-2.58074 1.407083,-3.56219 -0.628604,-1.34329 -2.961365,-2.24811 -6.470079,-2.50956 l -0.758031,-0.0565 -0.102451,-0.50126 c -0.05634,-0.2757 -0.0921,-0.51161 -0.07946,-0.52425 0.05535,-0.0554 3.572002,-0.0668 4.377127,-0.0143 3.370612,0.21995 5.638753,0.94266 6.842487,2.18025 1.155517,1.18802 1.175219,2.93828 0.05534,4.91614 -1.079325,1.90625 -3.290466,4.15103 -6.439844,6.53783 -3.042464,2.30576 -7.280315,4.93623 -11.632575,7.22043 l -0.664063,0.34852 -0.131371,0.51735 c -1.333185,5.25019 -4.764442,9.84734 -9.450625,12.66182 -2.771393,1.66448 -5.848638,2.64515 -9.098602,2.89958 -0.791147,0.0619 -2.691036,0.0493 -3.489488,-0.0232 z m 24.069881,-32.63693 c -0.659947,-0.0626 -1.277155,-0.3631 -1.781296,-0.86724 -0.570558,-0.57056 -0.830511,-1.16936 -0.863118,-1.98819 -0.02382,-0.59808 0.05113,-0.98103 0.286573,-1.46425 0.510616,-1.04798 1.54353,-1.6866 2.725023,-1.68482 1.53326,0.002 2.76454,1.09041 2.980458,2.63385 0.172841,1.23551 -0.505376,2.50924 -1.62943,3.06014 -0.581752,0.28512 -1.065082,0.37247 -1.71821,0.31051 z"
         id="path25"
         inkscape:connector-curvature="0"
         sodipodi:nodetypes="cccssccssscsccccsccsssscccssscssscssssscccsccscccsscssccssss" />
    </g>
  </g>
</svg>
