<?xml version="1.0" encoding="UTF-8"?>
<svg id="Livello_2" data-name="Livello 2" xmlns="http://www.w3.org/2000/svg" viewBox="0 0 170.36 95.59">
  <g id="Livello_1-2" data-name="Livello 1">
    <g fill="#2EAA6E">
      <path d="M170.36,84.58v2.58l-13.91.1c.56,4.67,5.82,6.01,9.37,3.44.21-.15,1.08-.99,1.18-.97l2.42,2.23c.05.14-.02.2-.09.3-.24.36-1.18,1.15-1.56,1.43-3.03,2.24-7.58,2.48-10.88.7-7.36-3.97-6.12-16.25,2.03-18.31,5.92-1.49,10.88,2.42,11.35,8.34l.1.16ZM166.04,84.27c-.18-1.99-1.34-4.14-3.38-4.71-.78-.22-2.03-.21-2.81.02-2.09.62-3.17,2.67-3.5,4.69h9.69Z"/>
      <path d="M77.3,6.18c-2.75,2.38-4.76,5.7-5.35,9.33-.7,4.34.46,10.48,4.66,12.73,3.51,1.88,8.06.79,10.17-2.59-.66-.08-1.29-.33-1.85-.68-.87-.54-1.7-1.54-2.22-2.42-.07-.13-.44-.75-.37-.82,1.95.53,3.8.58,5.75.03,2.15-.61,3.97-1.99,6.08-2.57,2.53-.7,5.27-.44,7.86-.23-.53.57-1.31.93-1.95,1.4-3.36,2.46-5.23,4.91-7.68,8.19-4.14,5.55-8.11,11.25-12.26,16.79l-.88,1.33c2.26-2.18,5.06-3.6,8.14-4.28,5.51-1.22,10.99-.04,16.41-1.21,4.01-.86,8.58-2.82,11.58-5.63.13-.12.1-.32.25-.31-.03.63.04,1.28,0,1.91-.07,1.51-.33,3.35-.75,4.81-1.46,4.98-5.84,7.83-10.31,9.89-.56.26-1.19.41-1.72.75l.77.16c2.47.13,4.9-.26,7.27-.93-.29.5-.61,1-.95,1.48-3.95,5.61-10.3,9.97-16.96,11.68-21.43,5.5-41.24-12.47-37.84-34.32.4-2.54,1.21-4.99,2.15-7.38.11-.14.2-.02.2.15.1,2.38,1.58,4.83,3.35,6.34.12.1.17.25.36.21-.42-1.3-.84-2.61-1.02-3.98-.71-5.47.8-9.74,4.89-13.33,3.47-3.05,7.73-5.34,12.21-6.49Z"/>
      <path d="M4.33,79.01c.53-.49.89-1.12,1.44-1.6,3.23-2.82,9.16-1.97,10.62,2.32.24.05.16-.02.23-.13.28-.49.42-.9.8-1.36,1.89-2.28,4.89-2.95,7.71-2.14,3.08.88,4.36,3.53,4.56,6.56v12.42h-4.44v-11.8c0-.23-.36-1.31-.5-1.57-1.34-2.6-5.5-2.6-7.01-.17-.28.45-.74,1.65-.74,2.15v11.38h-4.33v-10.66c-.11-1.57-.43-3.31-1.93-4.15-2.3-1.29-5.26-.2-6.12,2.29-.11.32-.31,1.17-.31,1.45v11.07H0v-18.95h4.33v2.88Z"/>
      <path d="M77.5,95.08h-4.43v-2.16c-1.81,2.01-4.28,2.79-6.96,2.58s-5.52-2.1-5.81-5.01c-.64-6.38,5.37-7.71,10.44-6.93.82.13,1.63.4,2.43.61.14-2.43-1.32-4.14-3.76-4.33-2.22-.17-4.31.29-6.34,1.13l-1.12-3.27c-.03-.09-.02-.16.03-.24.11-.17,2.18-.88,2.53-.98,6.12-1.72,13.02-.24,12.99,7.31v11.29ZM73.16,87.16c-.63-.2-1.27-.39-1.93-.5-1.56-.26-3.38-.39-4.87.23-.91.38-1.68,1.12-1.76,2.16-.3,3.79,5.14,3.82,7.32,1.96,1.25-1.06,1.35-2.29,1.22-3.85Z"/>
      <path d="M131.51,95.08h-4.33v-2.16c-2.13,2.26-5.33,3.13-8.35,2.32-3.56-.95-5.26-3.98-4.25-7.55,1.34-4.76,7.78-4.79,11.7-3.81.3.08.61.18.9.28.12-1.34-.34-2.85-1.51-3.59-2.37-1.5-6.14-.55-8.59.4l-1.09-3.51c1.24-.56,2.61-1.06,3.95-1.31,5.69-1.07,11.18.46,11.57,7.02v11.9ZM127.28,87.16c-.67-.16-1.32-.4-2.01-.51-1.71-.27-4.31-.43-5.71.76s-1.15,3.54.58,4.37c2.24,1.07,6.16.21,6.97-2.38.23-.72.18-1.49.17-2.24Z"/>
      <path d="M49.47,95.08h-4.33v-2.16c-2.12,2.27-5.34,3.13-8.35,2.32-3.28-.88-5.08-3.58-4.4-6.98,1.05-5.27,7.66-5.43,11.85-4.38.3.08.61.18.9.28.13-1.36-.32-2.83-1.51-3.59-2.37-1.5-6.14-.55-8.59.4l-1.09-3.51c1.46-.63,3.07-1.21,4.65-1.43,5.44-.75,10.5.85,10.87,7.04v12.01ZM45.24,87.16c-.67-.16-1.32-.4-2.01-.51-1.69-.26-4.25-.42-5.66.71-1.54,1.24-1.2,3.64.6,4.45,1.51.68,3.73.49,5.15-.35,1.63-.96,2.1-2.46,1.92-4.3Z"/>
      <path d="M101.52,90.03v5.05h-4.43v-18.8l.36-.16c5.2.49,13.98-1.98,16.06,4.66.85,2.73.18,5.83-2.14,7.6-2.88,2.19-6.43,1.56-9.84,1.65ZM101.52,86.33h5c.27,0,.99-.25,1.26-.39,2.33-1.23,2.28-4.95-.28-5.84-.25-.09-1.08-.26-1.29-.26h-4.69v6.49Z"/>
      <path d="M86.96,75.85c1.75-.11,4.05.47,5.66,1.19.28.12,1.63.8,1.67,1.01l-1.45,2.75-.25.26c-.76-.36-1.48-.8-2.28-1.1-1.37-.51-3.66-1.07-4.92-.13-.71.53-1.01,1.47-.46,2.22.84,1.15,4.28,1.89,5.7,2.44,2.85,1.11,4.71,3.01,4.07,6.29-1.01,5.17-7.34,5.35-11.37,3.89-.94-.34-2.69-1.18-3.4-1.85-.08-.08-.16-.13-.16-.26,0-.26,1.65-2.44,1.92-2.83,1.97,1.38,5.13,2.85,7.56,2.11,1.12-.34,1.98-1.56,1.33-2.66-.75-1.26-4.64-1.99-6.09-2.56-2.71-1.07-4.34-3.02-3.76-6.08s3.37-4.5,6.24-4.68Z"/>
      <path d="M148.72,82c-1.24-1.18-2.6-2.23-4.38-2.37-6.38-.5-8.14,8.55-3.18,11.42,2.21,1.27,4.89.77,6.78-.81.18-.15.76-.85.92-.82l2.52,2.53c.03.14-.15.34-.24.45-.94,1.15-2.94,2.34-4.36,2.75-7.79,2.24-14.67-4.53-12.44-12.33,2.05-7.18,11.02-9.32,16.44-4.38.18.17.43.38.52.62,0,.2-.89.97-1.09,1.18-.12.13-.19.29-.3.42-.4.42-.97.82-1.19,1.34Z"/>
      <polygon points="57.41 95.08 52.97 95.08 52.97 76.28 53.13 76.13 57.25 76.13 57.41 76.28 57.41 95.08"/>
      <path d="M115.23,6.59c.02.24.02.17-.15.21-1.65.43-3.26,1.05-4.88,1.56l-1.57,5.03c-.14-.01-.16-.15-.21-.25-.64-1.5-.88-3.32-1.59-4.8l-5.01-1.54c.01-.14.15-.16.25-.21,1.5-.64,3.32-.88,4.8-1.59l1.69-5,1.65,5.05c1.53.5,3.05,1.03,4.58,1.5.14.04.27.05.42.05Z"/>
    </g>
  </g>
</svg>